<?xml version="1.0" encoding="UTF-8" standalone="no"?>
<!-- Created with Inkscape (http://www.inkscape.org/) -->

<svg
   xmlns:dc="http://purl.org/dc/elements/1.1/"
   xmlns:cc="http://creativecommons.org/ns#"
   xmlns:rdf="http://www.w3.org/1999/02/22-rdf-syntax-ns#"
   xmlns:svg="http://www.w3.org/2000/svg"
   xmlns="http://www.w3.org/2000/svg"
   xmlns:sodipodi="http://sodipodi.sourceforge.net/DTD/sodipodi-0.dtd"
   xmlns:inkscape="http://www.inkscape.org/namespaces/inkscape"
   width="800"
   height="600"
   viewBox="0 0 800.00001 600.00001"
   id="svg2"
   version="1.1"
   inkscape:version="0.91 r13725"
   sodipodi:docname="portifolio.svg">
  <defs
     id="defs4" />
  <sodipodi:namedview
     id="base"
     pagecolor="#ffffff"
     bordercolor="#666666"
     borderopacity="1.0"
     inkscape:pageopacity="0.0"
     inkscape:pageshadow="2"
     inkscape:zoom="0.98994949"
     inkscape:cx="337.6109"
     inkscape:cy="296.80338"
     inkscape:document-units="px"
     inkscape:current-layer="layer1"
     showgrid="false"
     units="px"
     showguides="true"
     inkscape:guide-bbox="true"
     inkscape:window-width="1871"
     inkscape:window-height="1062"
     inkscape:window-x="49"
     inkscape:window-y="18"
     inkscape:window-maximized="1">
    <sodipodi:guide
       position="-51.428572,300.00001"
       orientation="0,1"
       id="guide3344" />
    <sodipodi:guide
       position="400.00001,374.28572"
       orientation="1,0"
       id="guide3346" />
    <sodipodi:guide
       position="-91.428573,320.00001"
       orientation="0,1"
       id="guide3372" />
    <sodipodi:guide
       position="-69.285715,280"
       orientation="0,1"
       id="guide3374" />
  </sodipodi:namedview>
  <metadata
     id="metadata7">
    <rdf:RDF>
      <cc:Work
         rdf:about="">
        <dc:format>image/svg+xml</dc:format>
        <dc:type
           rdf:resource="http://purl.org/dc/dcmitype/StillImage" />
        <dc:title></dc:title>
      </cc:Work>
    </rdf:RDF>
  </metadata>
  <g
     inkscape:label="Layer 1"
     inkscape:groupmode="layer"
     id="layer1"
     transform="translate(0,-452.36216)">
    <path
       id="path3473"
       d="m 110.46452,714.26003 c 4.23177,-14.11783 5.71554,-28.6716 7.00475,-43.15349 0.85037,-15.82384 2.00595,-31.69463 1.34539,-47.54304 -0.36378,-8.72793 -0.82864,-10.90138 -1.93592,-19.23859 -0.78468,-5.64636 -2.28624,-11.17743 -4.56324,-16.51967 -1.04302,-2.44705 -2.37116,-4.79378 -3.483,-7.21732 -0.29138,-1.183 -0.96005,-3.70975 0.67856,-4.58612 18.51565,-9.90274 15.45162,-9.91838 27.7238,-11.95806 10.09361,-1.38353 19.82737,-3.93465 29.47766,-6.73201 11.69787,-3.43913 23.44095,-6.83187 34.68162,-11.26913 5.44066,-2.14769 16.17054,-6.8528 21.37613,-9.10857 3.55989,-1.70067 7.291,-3.16545 10.67965,-5.10204 2.83432,-1.61978 -7.08972,6.54741 -9.01024,4.148 -0.005,-0.005 13.96283,-7.88542 15.12882,-8.46528 24.96539,-12.41578 15.3093,-12.16875 28.30902,-11.77008 0.71467,1.00589 1.84323,1.87098 2.144,3.01769 0.77033,2.93699 -0.98761,7.95994 -2.04088,10.43099 -3.76546,8.83422 -9.93071,16.69522 -15.75343,24.60208 -11.49766,14.46755 -24.72089,27.8552 -39.65119,39.85189 -7.30565,5.87019 -13.76211,10.38823 -21.36337,15.86648 -6.64604,4.33487 -12.90412,9.25818 -20.16542,12.88679 -14.00841,7.00032 -19.07646,11.38722 -31.90811,13.60071 -4.11482,0.42006 -8.32147,0.26005 -12.39102,-0.38978 -4.53412,-1.44401 -7.48408,-4.50013 -10.14384,-7.78407 -6.24739,-12.17793 9.43677,-13.26113 22.12671,-19.62962 6.83004,-1.18673 12.70594,-0.88133 19.42309,0.57366 6.33414,1.89384 11.00426,5.74371 14.13885,10.73891 0.72863,1.16112 1.2778,2.39721 1.91671,3.59582 0.54997,1.60469 1.17568,3.19205 1.64989,4.81407 1.28916,4.40942 2.21411,9.25016 3.17545,13.69113 2.09081,9.65863 4.25449,19.29251 6.59727,28.90952 2.85504,11.71296 6.85184,23.1969 11.0598,34.60165 0,0 -19.90456,9.21869 -19.90456,9.21869 l 0,0 c -3.61697,-11.65772 -7.27054,-23.31419 -10.33866,-35.08677 -2.43312,-9.53541 -4.82285,-19.07682 -7.32412,-28.59948 -1.2913,-4.91609 -2.08968,-8.45466 -3.7366,-13.20206 -0.52313,-1.50794 -1.18057,-2.97987 -1.77085,-4.46983 -0.60358,-1.10835 -1.117,-2.25547 -1.81073,-3.32512 -2.93601,-4.52706 -7.41118,-7.88761 -13.2844,-9.33738 -6.21221,-1.06203 -12.74128,-1.40775 -18.70152,0.77385 6.29941,-3.22803 12.59621,-6.45974 18.89824,-9.68409 0.4265,-0.21821 -0.92748,0.36009 -1.27159,0.66571 -1.60148,1.42239 -0.68978,3.81563 0.0477,5.338 2.26905,2.89197 4.90092,5.59057 9.11929,6.31371 3.8506,0.34788 7.73495,0.65124 11.56639,-0.0451 9.0062,-2.00181 16.64943,-6.60724 -8.69035,5.8441 -1.96794,0.967 3.91483,-1.96868 5.80182,-3.04577 5.62568,-3.21106 10.60059,-6.60649 15.99102,-10.1336 8.28694,-5.78923 14.02887,-9.63631 22.00086,-15.92628 14.83757,-11.70696 27.91065,-24.84135 39.09742,-39.18298 4.46026,-6.19806 7.75556,-10.39689 11.42305,-16.85393 2.28063,-4.0153 5.652,-10.68968 5.3834,-15.42418 -0.0248,-0.43817 -0.4451,-0.79174 -0.66768,-1.18761 -8.11182,0.92069 -4.16585,0.76366 12.25256,-7.26513 2.43391,-1.19021 -4.77904,2.50757 -7.13368,3.80772 -20.92468,11.55392 4.02414,-1.08367 -37.12649,19.12929 -3.52009,1.72904 -7.11752,3.34195 -10.67627,5.0129 -6.30681,2.73663 -15.35771,6.73622 -21.85284,9.27917 -11.50469,4.50424 -23.52329,7.90974 -35.41728,11.57133 -5.00767,1.47419 -7.72516,2.35269 -12.6851,3.54044 -5.84517,1.39971 -11.82455,2.36822 -17.73237,3.5485 -0.99545,0.22836 -2.00528,0.41558 -2.98639,0.68501 -0.75371,0.20698 -2.88218,1.09785 -2.20995,0.742 6.28822,-3.32867 12.78508,-6.36657 19.08733,-9.67605 0.42188,-0.22154 -1.01234,0.14726 -1.4135,0.39503 -0.86934,0.53694 -0.61353,1.38506 -0.61524,2.1255 0.8736,2.55313 2.02903,5.01735 2.90671,7.57087 1.94924,5.67123 3.09796,11.48797 3.61332,17.38209 0.72022,7.85008 1.18142,11.57338 1.38646,19.66486 0.40192,15.86174 -0.66545,31.73049 -1.11666,47.58153 -0.774,14.18913 -1.76517,28.37707 -4.56807,42.40107 0,0 -21.76813,8.99146 -21.76813,8.99146 z"
       inkscape:connector-curvature="0" />
    <path
       id="path3558"
       d="m 233.59884,661.30596 c 6.28466,1.47072 12.79695,2.10922 19.23571,2.90614 9.05338,1.78664 17.97424,3.94195 27.14563,5.27004 3.1322,0.40749 6.28301,0.70801 9.44565,0.87649 0.83086,0.0442 1.66722,0.17915 2.49467,0.10136 1.48129,-0.13931 3.37088,-0.91141 4.71014,-1.38883 -35.37727,16.54385 -18.86642,11.39832 -14.6636,5.02608 1.88464,-2.85743 2.45865,-6.00286 3.11845,-9.17572 1.58593,-8.80217 0.26111,-17.57327 -3.73165,-25.7997 -0.83548,-1.72137 -1.87603,-3.36569 -2.81403,-5.04856 -4.14365,-6.02977 -9.83292,-11.446 -17.74658,-13.87452 -1.17341,-0.36009 -2.40219,-0.5736 -3.60327,-0.86041 -3.85833,-0.64908 -7.56252,-0.42932 -11.17482,0.96839 -1.42429,0.55109 -5.46107,2.59937 -4.08283,1.96944 16.702,-7.63356 20.05605,-10.25777 9.85677,-3.49411 -7.64428,5.54402 -13.55941,12.42435 -17.24752,20.37946 -2.2825,4.92319 -2.65433,7.19568 -4.02435,12.31036 -1.21931,6.94179 -2.9054,14.44653 -0.46237,21.36294 0.32787,0.92822 0.82532,1.80699 1.23798,2.71049 3.68537,6.58737 9.69407,10.39606 16.94162,13.94475 12.08939,5.08264 25.70472,6.54073 38.93385,7.97062 7.53047,0.75946 15.08785,1.13597 22.66204,1.32834 0,0 -18.86219,11.51345 -18.86219,11.51345 l 0,0 c -7.40551,-0.45907 -14.79349,-1.05488 -22.16767,-1.80194 -13.71647,-1.42273 -27.93618,-2.58349 -40.37066,-8.10235 -7.81544,-3.93837 -13.88997,-7.89931 -17.9878,-14.99706 -1.17621,-2.62517 -1.77747,-3.53017 -2.2282,-6.38778 -1.00143,-6.34885 0.43623,-12.85929 1.67079,-19.08909 1.24109,-4.89887 1.80498,-7.93264 3.83848,-12.67362 3.48303,-8.12041 9.13595,-15.32208 16.6396,-21.15398 11.9779,-8.54664 5.55178,-4.35004 29.96372,-16.32979 5.20139,-2.5525 10.77102,-3.08358 16.53708,-1.80189 1.25581,0.37304 2.54787,0.66754 3.76738,1.11911 8.0758,2.99031 13.78364,8.96113 18.023,15.31849 0.95779,1.7435 2.00685,3.45291 2.87339,5.23051 4.09649,8.4035 5.91329,17.35118 4.79369,26.42364 -0.57102,4.27076 -1.21921,8.56246 -3.93854,12.30797 -5.02648,6.92333 -20.08721,10.97409 -24.78805,13.27647 -0.84925,0.18985 -1.68164,0.44633 -2.54775,0.56958 -4.82569,0.6867 -9.77213,-0.6836 -14.52173,-1.17959 -9.07785,-1.53229 -17.94442,-3.81771 -27.05314,-5.21316 -6.67941,-0.73859 -13.3535,-1.52094 -19.9523,-2.68397 0,0 20.07941,-11.82801 20.07941,-11.82801 z"
       inkscape:connector-curvature="0" />
    <path
       id="path3560"
       d="m 338.22543,655.74863 c 3.85223,6.74543 8.77528,12.97939 13.54896,19.26681 8.16174,9.84754 14.27274,20.87922 22.97245,30.40695 6.10803,-5.84599 -5.76014,5.67786 -20.58405,7.80006 -2.06195,0.2952 -1.00441,-3.44927 -1.61285,-5.1482 -0.94489,-2.63841 -2.00107,-5.24732 -3.04525,-7.8586 -7.53392,-18.84084 -0.86484,-1.26596 -8.69307,-22.39138 -1.39228,-4.56364 -2.91491,-9.10004 -4.17685,-13.69094 -4.84686,-17.63278 -8.63643,-35.85052 -9.17633,-53.99205 -0.10071,-3.38604 0.14767,-6.77309 0.22142,-10.15961 1.08456,-6.49427 1.71869,-13.67152 6.30437,-19.2694 1.05137,-1.28344 2.26009,-2.54965 3.80559,-3.39926 21.36034,-11.74253 16.11529,-10.11923 29.16905,-13.24818 5.99987,-0.65487 12.38363,-0.56885 17.69271,2.29114 3.30322,1.77943 5.56236,4.2358 8.16759,6.65339 1.48034,1.81106 3.12934,3.53064 4.44098,5.43316 8.50983,12.34341 12.37969,26.81794 14.85946,40.80786 0.85788,4.83976 1.3833,9.71786 2.07497,14.57678 2.01732,20.60932 1.03605,41.51506 -4.51219,61.70871 -3.24505,11.81083 -5.52465,16.07423 -10.36128,27.29069 -6.18272,12.85658 -13.76448,25.16449 -21.27824,37.48094 0,0 -20.48722,7.80261 -20.48722,7.80261 l 0,0 c 8.22293,-12.35845 16.33899,-24.79323 22.94813,-37.85239 5.16095,-11.36351 7.35448,-15.14731 10.827,-27.15099 5.77962,-19.979 6.97982,-40.70988 4.65774,-61.14537 -0.79966,-4.76808 -1.42692,-9.55935 -2.399,-14.30428 -2.78103,-13.57499 -6.99904,-27.64288 -16.01481,-39.31311 -1.37587,-1.78096 -3.09155,-3.35488 -4.63734,-5.03232 -2.78015,-2.32626 -4.57166,-4.19713 -7.98829,-5.77978 -5.13107,-2.37682 -11.08191,-2.20202 -16.6029,-1.20282 -7.91889,2.51389 -14.28661,4.79947 11.10612,-6.54879 1.60836,-0.71882 -3.04493,1.74658 -4.24577,2.90515 -5.37978,5.19036 -6.50362,12.49426 -8.04291,18.95352 -0.26448,3.408 -0.74184,6.80889 -0.79347,10.224 -0.26629,17.61272 3.49054,36.81964 8.4703,53.87194 1.31942,4.51808 2.96893,8.96202 4.4534,13.44303 5.76107,13.78701 3.61384,9.27252 9.77413,21.80558 1.24335,2.52964 2.52173,5.04674 3.78662,7.56868 0.84476,1.68424 3.91831,3.64061 2.54233,5.04984 -16.62914,17.03116 -14.76955,18.12736 -21.23258,12.05295 -6.90518,-10.49941 -13.91922,-21.00039 -22.25599,-30.73905 -5.13945,-6.16264 -10.20788,-12.35813 -14.88432,-18.78295 0,0 21.20139,-10.38432 21.20139,-10.38432 z"
       inkscape:connector-curvature="0" />
    <path
       id="path3596"
       d="m 611.51424,635.33404 c -0.60469,10.57215 -0.66644,21.16427 -0.78932,31.74709 -0.2221,7.90671 -0.79203,15.8046 -1.01219,23.71122 -0.0598,2.15075 -0.18749,9.07815 0.11686,11.57715 0.13443,1.10419 0.55124,2.17026 0.82686,3.25539 7.47989,2.81841 6.20732,1.9986 -17.81399,8.26214 -1.82825,0.47673 2.61636,-2.38777 3.68414,-3.73517 1.5901,-2.00651 2.92285,-4.15411 4.26011,-6.28949 5.07342,-8.10147 5.81979,-10.08651 10.27591,-18.83584 10.71719,-22.25852 17.15344,-45.70892 24.37006,-68.88979 1.24598,-3.78547 2.81474,-9.73985 5.25561,-13.41288 4.65098,-6.99882 26.80109,-10.6014 27.64849,-10.6613 2.86334,-0.2024 3.67634,3.7772 5.13487,5.87947 1.99292,2.87251 3.45146,5.98928 5.1772,8.98392 6.03339,13.53363 10.41165,27.55736 13.67229,41.7513 2.82135,12.28158 4.46871,21.1479 4.77338,33.71441 0.13618,5.61685 -0.43082,11.23014 -0.64624,16.8452 -2.1639,15.37219 -7.103,28.85638 -17.11293,41.87365 -6.15275,8.00122 -10.41964,11.11249 -18.02305,17.70459 0,0 -19.97318,7.01303 -19.97318,7.01303 l 0,0 c 8.02317,-6.51171 12.50523,-9.54752 19.04251,-17.53969 6.55438,-8.01305 11.40008,-16.5412 14.58168,-25.93545 1.7142,-5.06153 2.45931,-10.32431 3.68899,-15.48646 0.2746,-5.57102 0.93098,-11.13792 0.82379,-16.71306 -0.23627,-12.28929 -1.97635,-21.37105 -4.92439,-33.34952 -3.42444,-13.91421 -8.11771,-27.61456 -14.9405,-40.61703 -1.88605,-2.76128 -3.46516,-5.69122 -5.65816,-8.28385 -1.47873,-1.74823 -6.63299,-2.82721 -5.27967,-4.64724 3.73407,-5.02182 11.2279,-7.08613 16.73025,-10.7522 1.18633,-0.79042 -2.82934,1.12049 -3.77309,2.11919 -3.17355,3.35828 -5.08179,9.86741 -6.49845,13.55355 -7.92842,23.11454 -14.43907,46.61909 -24.47354,69.17939 -4.45569,9.53427 -4.38321,9.77776 -9.16283,18.59753 -1.14172,2.10681 -2.31639,4.20156 -3.55457,6.2687 -0.85382,1.42544 -1.14143,3.3324 -2.71924,4.20547 -7.5103,4.15565 -15.5489,7.68896 -23.87465,10.50973 -0.84911,0.28769 -1.09664,-1.24242 -1.64497,-1.86365 -0.19179,-1.24326 -0.51009,-2.47712 -0.57538,-3.72977 -0.11282,-2.16457 0.3365,-10.19666 0.43012,-11.92133 0.42732,-7.87202 0.96805,-15.7422 1.02469,-23.62537 -0.12153,-10.35498 -0.17477,-20.72033 -0.78931,-31.06401 0,0 21.72184,-9.39902 21.72184,-9.39902 z"
       inkscape:connector-curvature="0" />
    <path
       id="path3762"
       d="m 530.44196,669.46867 c -1.14715,-4.8947 -2.86933,-9.76821 -5.77644,-14.13548 -0.93857,-1.40998 -2.02618,-2.74457 -3.03929,-4.11686 -9.69593,-10.93634 -20.23271,-21.59007 -32.67807,-30.36586 -2.74185,-1.93341 -5.66443,-3.6741 -8.49665,-5.51114 -6.27028,-3.79465 -12.85303,-7.22481 -19.83095,-10.00031 -2.1985,-0.87447 -5.32855,-2.04431 -7.82845,-2.40641 -0.9357,-0.13551 -1.89741,-0.0525 -2.84613,-0.0788 -10.07059,4.81966 12.34653,-5.92307 16.32671,-7.45351 0.96651,-0.37165 -1.41733,1.35601 -1.95696,2.13177 -2.51054,3.60918 -2.91428,7.9375 -3.60852,11.97365 -2.39873,15.69199 0.0782,31.3665 6.0596,46.30601 1.46126,3.64975 3.29421,7.18446 4.94132,10.77667 4.82517,9.49798 10.57264,18.62921 17.65222,27.05661 2.6534,3.15867 6.52647,7.41763 10.14535,10.01882 1.29916,0.93382 2.852,1.5782 4.278,2.36737 1.2266,0.16952 2.45269,0.67554 3.67981,0.50869 1.24783,-0.16965 4.50848,-1.94104 3.37421,-1.46791 -5.56902,2.32312 -10.58586,6.02285 -16.67884,7.01789 -2.2384,0.36565 2.63987,-3.17218 3.67937,-4.89491 2.96009,-4.90559 4.40476,-9.56575 6.38216,-14.81627 5.10534,-16.09565 7.67702,-32.63599 9.11081,-49.22797 1.28499,-10.56556 3.33515,-8.8262 23.17537,-14.90716 1.10308,-0.33807 1.28509,1.66924 1.83887,2.54713 2.12096,3.3622 2.43233,4.52847 4.08467,8.31593 3.7579,8.81918 7.25044,17.72691 11.91767,26.24216 3.30174,6.02384 4.56042,7.70619 8.332,13.46528 3.94085,5.87641 8.37379,11.44017 13.7581,16.41903 0,0 -20.32855,10.38916 -20.32855,10.38916 l 0,0 c -5.00424,-5.38195 -9.17189,-11.21857 -13.01055,-17.2517 -3.92922,-6.10828 -4.83099,-7.29531 -8.35235,-13.64913 -4.70202,-8.4843 -8.50404,-17.28796 -12.67816,-25.96144 -1.84995,-3.66357 -1.98728,-4.50253 -4.47851,-7.57588 -0.3399,-0.41929 -1.70488,-0.82755 -1.21749,-1.12388 6.36445,-3.86946 13.38475,-6.89493 20.07714,-10.3424 -0.43919,0.42708 -1.05579,0.75962 -1.31751,1.28124 -0.54167,1.07951 -0.6905,2.27243 -1.03573,3.40866 -2.84938,16.67094 -5.00157,33.46101 -9.69838,49.86004 -1.8116,5.49529 -2.97511,9.69608 -5.49495,14.9315 -0.86966,1.80696 -1.20619,4.05359 -3.00202,5.27206 -7.3771,5.00545 -15.65119,9.00532 -23.86665,12.95851 -1.22697,0.59038 -2.78055,0.66457 -4.18294,0.53838 -1.37885,-0.12434 -2.58943,-0.84306 -3.88416,-1.26457 -1.39337,-0.96177 -2.91264,-1.80522 -4.18012,-2.88543 -3.47752,-2.96336 -6.92442,-7.28982 -9.52397,-10.71375 -6.6708,-8.78621 -12.39695,-18.05584 -17.25395,-27.66151 -1.69251,-3.62862 -3.55289,-7.204 -5.07756,-10.88591 -6.16885,-14.89704 -9.39502,-30.48831 -8.0537,-46.29049 0.32435,-3.32856 0.42642,-6.11745 1.31819,-9.34587 2.86321,-10.36553 15.98204,-16.94925 28.35207,-17.86301 0.9961,0.16995 2.01633,0.25862 2.98829,0.50986 2.50278,0.64693 5.33183,1.91514 7.56186,2.97064 6.68147,3.16248 13.00599,6.83949 19.07768,10.78398 2.81579,1.89734 5.70306,3.72056 8.44737,5.69199 7.17567,5.15481 9.90702,7.59182 16.40029,13.31069 3.90428,3.43863 9.32362,8.32569 13.05974,12.02184 1.6043,1.58714 3.10928,3.2448 4.66392,4.86721 1.13958,1.39604 2.36896,2.7422 3.41873,4.18815 3.16186,4.35509 5.01134,9.30921 6.68398,14.18523 0,0 -21.40795,9.88144 -21.40795,9.88144 z"
       inkscape:connector-curvature="0" />
    <path
       id="path3826"
       d="m 125.01891,919.51864 c 0.93988,-10.23172 3.19703,-85.27558 2.41673,-95.48708 -1.24999,-14.0856 -1.37708,-28.20556 -1.51742,-42.32173 0.79013,-9.21622 -2.08529,-19.02983 1.10631,-28.0651 0.31593,-0.89435 0.82822,-1.72991 1.24233,-2.59488 7.81426,-10.13777 3.919,-5.70565 33.5177,-16.4643 1.35774,-0.49351 2.74965,0.93022 4.05275,1.52049 1.86099,0.84297 3.64992,1.79868 5.42128,2.77099 6.40026,3.51308 9.4973,5.61642 15.88232,9.63312 28.47916,18.25576 55.95972,37.60819 82.93955,57.42848 25.13559,18.30744 47.12703,39.36124 70.04435,59.58232 4.68736,4.694 13.56543,9.83801 11.08118,17.20372 -1.75705,5.20945 -7.4502,8.13958 -12.55083,10.5533 -13.06895,6.18447 -26.44751,11.88485 -39.67125,17.82727 -40.56217,11.55301 -83.75213,12.96313 -126.12107,14.66804 -35.42167,0.85304 -70.88351,1.64864 -106.321987,1.0368 -12.48083,-0.21547 -38.010812,-1.11409 -50.722522,-1.53762 l 23.557935,-14.4033 c 18.10984,0.72895 32.046309,1.38586 50.262379,1.71687 35.497065,0.64503 71.009675,-0.2309 106.481125,-1.31616 43.05579,-1.98822 87.04104,-3.86715 127.80326,-16.9257 -5.22277,2.97629 -10.7953,5.55174 -15.66832,8.92883 -4.36726,3.02655 10.13206,-3.60748 12.99327,-7.79379 2.73468,-4.00126 0.25894,-6.28121 -2.53039,-9.59171 -1.8409,-2.18483 -4.02669,-4.14446 -6.04002,-6.2167 -21.63107,-20.91676 -43.19314,-42.00552 -68.04212,-60.26625 -27.23335,-19.77404 -55.09048,-39.01012 -84.72816,-56.15296 -5.62241,-3.126 -10.71098,-6.16549 -16.654,-8.77835 -1.77884,-0.78205 -3.59292,-1.53915 -5.50478,-2.04668 -1.11047,-0.29478 -4.41439,0.23943 -3.46799,-0.33528 7.98576,-4.84945 37.42941,-19.70221 25.19786,-12.94901 -0.57911,0.71604 -1.27635,1.37265 -1.73731,2.14808 -4.47793,7.53286 -2.01726,19.59531 -2.65082,27.76247 0.22343,14.01872 0.63772,28.04315 1.75281,42.03376 0.89158,10.0961 0.37129,83.64276 0.52658,93.77156 z"
       inkscape:connector-curvature="0"
       sodipodi:nodetypes="cccscssscccssccsccsccssscccssscscccc" />
    <path
       id="path3828"
       d="m 361.15072,925.54256 c 7.14606,-10.86585 11.12887,-22.99095 14.6815,-34.98801 4.33232,-16.76265 5.35656,-33.94814 5.70564,-51.0541 0.30018,-5.6303 0.0126,-11.14331 -1.7861,-16.56712 0,0 29.94127,-13.81286 29.94127,-13.81286 l 0,0 c 1.7973,5.86408 2.03631,11.70736 1.27783,17.75321 -1.04949,17.2819 -1.91873,34.65298 -5.7399,51.69071 -3.20233,11.94574 -7.08027,23.78027 -12.58829,35.125 0,0 -31.49195,11.85317 -31.49195,11.85317 z"
       inkscape:connector-curvature="0" />
    <path
       id="path3832"
       d="m 373.95731,816.00911 c -7.38152,-5.36777 -15.75498,-9.63319 -23.96906,-14.00077 -4.00016,-2.4863 -10.81295,-4.82695 -11.87927,-9.56709 -0.14561,-0.64741 -0.0197,-1.31812 -0.0294,-1.97716 9.98034,-14.96541 30.26408,-16.05829 47.24402,-17.97531 8.85293,-0.90172 17.7666,-1.17856 26.67009,-1.44847 5.47703,-0.17665 10.95806,-0.20577 16.43827,-0.23095 3.14301,-0.0371 7.5162,0.19945 8.91155,3.13451 0.28185,0.59291 0.3026,1.25274 0.4539,1.87911 -0.3494,3.09447 -3.68498,4.27571 -6.45288,5.75203 -3.51228,1.87335 -2.29379,1.20833 -5.83645,3.28642 -5.28898,3.30939 -10.53386,6.824 -14.08444,11.58292 0,0 -31.35049,11.99474 -31.35049,11.99474 l 0,0 c 2.7948,-5.48273 8.32659,-9.27523 13.724,-12.92123 4.01236,-2.5832 8.09874,-5.21188 12.92041,-6.58344 3.00888,-0.35583 -6.1598,-1.46928 -6.1784,-0.91555 -5.33309,-0.0255 -10.66656,-0.0204 -15.99885,0.0731 -8.84973,0.20707 -17.70077,0.61396 -26.4727,1.68145 -3.71817,0.41249 -7.47048,0.73279 -11.13267,1.441 -0.97784,0.18909 -3.75689,1.11331 -2.90533,0.66353 26.43767,-13.96431 38.16538,-13.30409 25.53587,-13.69863 -0.37293,0.059 -0.90698,-0.0901 -1.11876,0.17715 -1.45459,1.8358 8.6534,7.53974 9.91722,8.15393 8.28567,4.57258 16.6797,9.00499 24.77039,13.82701 0,0 -29.17703,15.6717 -29.17703,15.6717 z"
       inkscape:connector-curvature="0" />
    <path
       id="path3844"
       d="m 609.55668,833.96443 c -10.47239,-0.514 -20.94501,-0.99304 -31.43352,-1.24002 -8.9306,-0.0846 -17.88033,-0.4851 -26.80188,-0.0184 -1.76301,0.23271 -5.16118,0.56901 -6.87008,1.21497 -0.92024,0.34784 -3.38641,1.84911 -2.5041,1.4364 9.15453,-4.2822 18.06445,-8.94416 27.33067,-13.04947 0.58365,-0.25859 -0.91135,0.86894 -1.06469,1.41262 -0.16913,0.59974 0.0971,1.23065 0.14579,1.84598 0.75085,0.939 1.30956,2.01265 2.25257,2.81701 6.13391,5.23194 17.75219,9.62789 25.39372,12.45642 15.81672,5.85462 18.34412,6.10664 35.63473,10.83144 22.15835,5.35705 44.46452,10.26515 66.8466,14.89941 1.13087,0.23413 29.13434,5.74228 32.73967,6.88425 2.57939,0.817 4.74238,2.37552 7.11359,3.56328 -0.25365,1.9434 1.09759,4.676 -0.76095,5.83019 -12.05143,7.48419 -25.36953,13.50378 -38.92583,18.81615 -4.98558,1.95374 -46.71189,8.43463 -47.09801,8.50027 -43.78234,7.44313 -31.04158,5.25995 -77.39963,14.84833 -67.76051,15.54003 -134.85792,33.52432 -200.28488,55.16542 -38.9851,12.89488 -57.59864,20.35132 -95.28908,34.58162 -50.09786,20.2505 -26.34059,10.1945 -71.37784,29.9865 0,0 20.59406,-14.0121 20.59406,-14.0121 l 0,0 c 43.33688,-18.4757 20.42103,-9.0438 68.84607,-28.1221 36.89494,-13.67526 56.00503,-21.13098 94.14089,-33.66452 66.36823,-21.81239 134.26754,-40.25781 202.77807,-56.53669 14.25197,-3.0966 28.46008,-6.34254 42.75589,-9.28979 3.5078,-0.72318 59.87903,-11.49544 67.16026,-13.11798 6.82135,-1.52007 16.5121,-10.34642 20.23074,-5.25771 2.8017,3.83396 -26.42694,15.53785 -13.31644,7.44023 -1.75832,-1.19293 -3.23858,-2.76501 -5.27493,-3.57879 -5.63499,-2.25192 -26.74503,-6.89766 -30.89859,-7.83201 -22.39072,-5.03679 -44.91154,-9.65273 -67.26587,-14.80852 -17.12765,-4.27579 -21.4196,-4.97985 -37.35836,-10.2508 -8.71871,-2.88327 -21.08869,-7.02954 -28.09362,-12.70612 -1.3411,-1.08678 -2.25744,-2.49748 -3.38617,-3.74624 -0.31367,-1.01033 -0.83814,-1.98979 -0.94099,-3.03099 -1.14599,-11.60274 30.80774,-18.66296 31.53282,-19.02552 2.9323,-1.46622 6.85071,-1.18019 10.0574,-1.58992 8.88042,-0.19993 17.76573,0.17631 26.64204,0.39731 10.68367,0.38657 21.3853,0.97987 32.07987,0.71728 0,0 -27.92993,17.23262 -27.92993,17.23262 z"
       inkscape:connector-curvature="0" />
    <path
       id="path3762-7"
       d="m 515.86801,872.68904 c -1.14714,-4.8947 -2.86932,-9.76823 -5.77642,-14.13549 -0.93857,-1.40997 -2.02619,-2.74458 -3.03929,-4.11686 -9.69593,-10.93634 -20.23271,-21.59008 -32.67807,-30.36587 -2.74186,-1.93341 -5.66444,-3.6741 -8.49665,-5.51115 -6.27028,-3.79463 -12.85305,-7.2248 -19.83097,-10.00031 -2.19849,-0.87446 -5.32853,-2.04431 -7.82844,-2.40639 -0.93569,-0.13552 -1.89741,-0.0525 -2.84612,-0.0788 -10.0706,4.81965 12.34652,-5.92307 16.3267,-7.45351 0.96651,-0.37164 -1.41732,1.356 -1.95695,2.13179 -2.51055,3.60915 -2.91429,7.9375 -3.60852,11.97363 -2.39873,15.69199 0.0782,31.36651 6.05958,46.30601 1.46127,3.64976 3.29423,7.18446 4.94133,10.77668 4.82518,9.49798 10.57264,18.62921 17.65222,27.05659 2.65341,3.15868 6.52648,7.41763 10.14536,10.01882 1.29916,0.93382 2.85199,1.57821 4.27799,2.36739 1.2266,0.16951 2.45269,0.67553 3.67982,0.50868 1.24783,-0.16965 4.50847,-1.94104 3.37421,-1.46791 -5.56903,2.32312 -10.58587,6.02285 -16.67885,7.0179 -2.23839,0.36564 2.63987,-3.17218 3.67938,-4.8949 2.96007,-4.90562 4.40476,-9.56577 6.38215,-14.81629 5.10534,-16.09563 7.67702,-32.63597 9.11082,-49.22796 1.28499,-10.56555 3.33514,-8.8262 23.17537,-14.90717 1.10308,-0.33808 1.28508,1.66925 1.83887,2.54713 2.12095,3.3622 2.43233,4.52848 4.08466,8.31593 3.75791,8.81917 7.25045,17.72692 11.91768,26.24216 3.30173,6.02384 4.56042,7.7062 8.332,13.46529 3.94085,5.87641 8.37379,11.44017 13.75809,16.41903 0,0 -20.32854,10.38915 -20.32854,10.38915 l 0,0 c -5.00424,-5.38195 -9.1719,-11.21857 -13.01055,-17.2517 -3.92922,-6.10829 -4.83099,-7.29531 -8.35236,-13.64913 -4.70202,-8.48428 -8.50403,-17.28795 -12.67816,-25.96143 -1.84996,-3.66357 -1.98727,-4.50253 -4.47851,-7.57587 -0.33989,-0.41932 -1.70487,-0.82757 -1.21749,-1.12389 6.36446,-3.86948 13.38475,-6.89495 20.07712,-10.3424 -0.43916,0.42707 -1.05576,0.75961 -1.31749,1.28122 -0.54167,1.07953 -0.69049,2.27244 -1.03572,3.40868 -2.84938,16.67093 -5.00157,33.461 -9.69838,49.86002 -1.8116,5.49531 -2.97511,9.69611 -5.49495,14.93151 -0.86967,1.80696 -1.2062,4.05361 -3.00203,5.27205 -7.37711,5.00547 -15.65119,9.00533 -23.86664,12.95854 -1.22697,0.59037 -2.78057,0.66456 -4.18295,0.53836 -1.37885,-0.12434 -2.58943,-0.84304 -3.88415,-1.26457 -1.39338,-0.96175 -2.91264,-1.80521 -4.18012,-2.88541 -3.47752,-2.96338 -6.92443,-7.28983 -9.52398,-10.71375 -6.67079,-8.78622 -12.39695,-18.05585 -17.25394,-27.66154 -1.69251,-3.6286 -3.55289,-7.20397 -5.07757,-10.88589 -6.16885,-14.89705 -9.39501,-30.48832 -8.0537,-46.2905 0.32436,-3.32854 0.42642,-6.11743 1.3182,-9.34587 2.8632,-10.36553 15.98203,-16.94924 28.35206,-17.86301 0.99611,0.16996 2.01633,0.25862 2.9883,0.50987 2.50277,0.64694 5.33183,1.91512 7.56183,2.97063 6.68149,3.1625 13.00602,6.83949 19.07771,10.78399 2.81578,1.89733 5.70306,3.72056 8.44736,5.69198 7.17567,5.15481 9.90703,7.59183 16.4003,13.31069 3.90427,3.43863 9.32361,8.3257 13.05973,12.02185 1.60431,1.58714 3.10928,3.24478 4.66393,4.8672 1.13957,1.39604 2.36895,2.74221 3.41873,4.18816 3.16185,4.35509 5.01132,9.30919 6.68397,14.18522 0,0 -21.40796,9.88146 -21.40796,9.88146 z"
       inkscape:connector-curvature="0" />
  </g>
</svg>
