<svg xmlns:svg="http://www.w3.org/2000/svg" xmlns="http://www.w3.org/2000/svg" width="50" height="40" viewbox="0 0 50 40" id="svg2985" version="1.1"><defs id="defs2987"/><metadata id="metadata2991"/><g id="layer1" transform="translate(0,-704.09451)"><g id="mb_text" transform="matrix(0.05149209,0,0,0.05934833,-2.0941643,702.01412)"><path id="path4088" d="m234.87 465.06-64.17-286.97 0 227.87c0 20.96 1.1 34.04 3.31 39.24 3.02 7.04 7.8 10.56 14.33 10.56l5.88 0 0 9.31-57.8 0 0-9.31 5.88 0c7.02 0 12-4.36 14.94-13.08 1.8-5.37 2.69-17.61 2.69-36.72l0-222.84c0-15.09-0.82-25.99-2.45-32.7-1.14-4.86-3.27-8.89-6.37-12.07-3.02-3.35-7.92-5.03-14.7-5.03l0-9.31 47.02 0 60.25 266.85 59.27-266.85 47.02 0 0 9.31-5.76 0c-7.1 0-12.12 4.36-15.06 13.08-1.8 5.37-2.69 17.61-2.69 36.72l0 222.84c0 20.96 1.14 34.04 3.43 39.24 3.02 7.04 7.8 10.56 14.33 10.56l5.76 0 0 9.31-70.54 0 0-9.31 5.88 0c7.1 0 12.08-4.36 14.94-13.08 1.8-5.37 2.69-17.61 2.69-36.72l0-227.87-64.05 286.97-4.04 0" style="-inkscape-font-specification:Times New Roman;fill:#000;font-family:Times New Roman;font-size:100;letter-spacing:0;line-height:125;text-align:start;text-anchor:start;word-spacing:0"/><path id="path4102" d="m491.08 461.86c12.34 4.57 21.58 11.89 27.7 21.95 8.49 14.02 12.74 31.17 12.74 51.44 0 15.4-2.8 30.18-8.4 44.36-5.6 14.02-13.3 24.31-23.11 30.87-9.72 6.4-24.6 9.6-44.64 9.6l-84.03 0 0-8.46 6.7 0c7.44 0 12.78-4.12 16.02-12.35 2.01-5.33 3.02-16.69 3.02-34.07l0-200.29c0-19.21-1.27-31.32-3.81-36.35-3.41-6.71-8.49-10.06-15.23-10.06l-6.7 0 0-8.46 76.94 0c14.35 0 25.86 1.83 34.53 5.49 13.13 5.49 23.15 15.24 30.07 29.27 6.91 13.87 10.37 29.88 10.37 48.01 0 15.55-2.71 29.5-8.14 41.84-5.43 12.19-13.44 21.26-24.03 27.21m-68.8-12.35c3.24 1.07 6.91 1.91 11.03 2.52 4.2 0.46 8.8 0.69 13.79 0.69 12.78 0 22.36-2.36 28.75-7.09 6.48-4.88 11.42-12.27 14.84-22.18 3.41-9.91 5.12-20.73 5.12-32.47 0-18.14-4.25-33.61-12.74-46.41-8.49-12.8-20.88-19.21-37.16-19.21-8.75 0-16.63 1.68-23.63 5.03l0 119.12m0 148.16c10.15 4.12 20.18 6.17 30.07 6.17 15.84 0 27.92-6.17 36.24-18.52 8.32-12.5 12.47-27.89 12.47-46.19 0-12.04-1.88-23.63-5.65-34.75-3.76-11.13-9.89-19.89-18.38-26.29-8.49-6.4-18.99-9.6-31.51-9.6-5.43 0-10.07 0.15-13.92 0.46-3.85 0.3-6.96 0.84-9.32 1.6l0 127.13" style="-inkscape-font-specification:Times New Roman;fill:#000;font-family:Times New Roman;font-size:100;letter-spacing:0;line-height:125;word-spacing:0"/><path id="path4114" d="m147.41 511.51 0 92.95 13.28 0c11.21 0 19.41-3.74 24.59-11.21 5.22-7.47 7.84-19.27 7.84-35.39 0-16.01-2.61-27.73-7.84-35.15-5.19-7.47-13.39-11.21-24.59-11.21l-13.28 0m-10.99-13.29 22.58 0c15.74 0 27.3 4.83 34.66 14.49 7.36 9.61 11.05 24.66 11.05 45.15 0 20.6-3.7 35.73-11.1 45.4-7.4 9.66-18.94 14.49-34.61 14.49l-22.58 0 0-119.53" style="-inkscape-font-specification:Droid Arabic Naskh;fill:#000;font-family:Droid Arabic Naskh;font-size:40;letter-spacing:0;line-height:125;word-spacing:0"/><path id="path4116" d="m247.36 514.16-14.91 59.49 29.87 0-14.96-59.49 -6.2-15.93 12.46 0 30.96 119.53-11.43 0-7.4-30.66-36.62 0-7.4 30.66-11.59 0 31.02-119.53" style="-inkscape-font-specification:Droid Arabic Naskh;fill:#000;font-family:Droid Arabic Naskh;font-size:40;letter-spacing:0;line-height:125;word-spacing:0"/><path id="path4118" d="m345.09 502.15 0 15.77c-4.17-2.94-8.11-5.12-11.81-6.57-3.7-1.44-7.27-2.16-10.72-2.16-5.99 0-10.61 1.71-13.88 5.12-3.23 3.42-4.84 8.27-4.84 14.57 0 5.28 1.07 9.29 3.21 12.01 2.18 2.67 6.28 4.83 12.3 6.49l6.64 2c8.2 2.3 14.24 6.35 18.12 12.17 3.92 5.76 5.88 13.5 5.88 23.22 0 11.58-2.65 20.36-7.94 26.34-5.26 5.98-12.99 8.97-23.18 8.97-3.85 0-7.94-0.64-12.3-1.92-4.32-1.28-8.8-3.18-13.44-5.68l0-16.65c4.46 3.68 8.83 6.46 13.11 8.33 4.28 1.87 8.49 2.8 12.62 2.8 6.28 0 11.12-1.81 14.53-5.44 3.41-3.63 5.11-8.81 5.11-15.53 0-5.87-1.23-10.46-3.7-13.77-2.43-3.31-6.44-5.79-12.03-7.45l-6.69-1.92c-8.2-2.4-14.13-6.16-17.79-11.29-3.66-5.12-5.5-12.25-5.5-21.38 0-10.57 2.52-18.89 7.56-24.98 5.08-6.08 12.06-9.13 20.95-9.13 3.81 0 7.69 0.51 11.64 1.52 3.95 1.01 8 2.54 12.13 4.56" style="-inkscape-font-specification:Droid Arabic Naskh;fill:#000;font-family:Droid Arabic Naskh;font-size:40;letter-spacing:0;line-height:125;word-spacing:0"/><path id="path4091" d="m371.34 124.02 82.7 0 0 17.65-65.01 0 0 45.89 62.29 0 0 17.65-62.29 0 0 56.17 66.58 0 0 17.65-84.28 0 0-155.02" style="-inkscape-font-specification:Symbol;fill:#000;font-family:Symbol;font-size:50;letter-spacing:0;line-height:125;word-spacing:0;writing-mode:lr-tb"/><path id="path4093" d="m484.88 124.02 23.83 0 58 129.68 0-129.68 17.17 0 0 155.02-23.83 0-58-129.68 0 129.68-17.17 0 0-155.02" style="-inkscape-font-specification:Symbol;fill:#000;font-family:Symbol;font-size:50;letter-spacing:0;line-height:125;word-spacing:0;writing-mode:lr-tb"/><path id="path4095" d="m619.1 124.02 17.7 0 0 155.02-17.7 0 0-155.02" style="-inkscape-font-specification:Symbol;fill:#000;font-family:Symbol;font-size:50;letter-spacing:0;line-height:125;word-spacing:0;writing-mode:lr-tb"/><path id="path4097" d="m672.02 124.02 23.83 0 58 129.68 0-129.68 17.17 0 0 155.02-23.83 0-58-129.68 0 129.68-17.17 0 0-155.02" style="-inkscape-font-specification:Symbol;fill:#000;font-family:Symbol;font-size:50;letter-spacing:0;line-height:125;word-spacing:0;writing-mode:lr-tb"/><path id="path4099" d="m849.95 144.68-24 77.15 48.1 0-24.09-77.15 -9.99-20.66 20.06 0 49.85 155.02-18.4 0-11.91-39.77-58.96 0-11.91 39.77-18.66 0 49.94-155.02" style="-inkscape-font-specification:Symbol;fill:#000;font-family:Symbol;font-size:50;letter-spacing:0;line-height:125;word-spacing:0;writing-mode:lr-tb"/><path id="path4105" d="m591.76 421.48-19.85 111.54 39.78 0-19.93-111.54 -8.26-29.87 16.59 0 41.23 224.12-15.22 0-9.85-57.49-48.77 0-9.85 57.49-15.43 0 41.3-224.12" style="-inkscape-font-specification:Symbol;fill:#000;font-family:Symbol;font-size:50;letter-spacing:0;line-height:125;word-spacing:0"/><path id="path4107" d="m657.05 391.6 14.64 0 0 198.6 52.68 0 0 25.52-67.31 0 0-224.12" style="-inkscape-font-specification:Symbol;fill:#000;font-family:Symbol;font-size:50;letter-spacing:0;line-height:125;word-spacing:0"/><path id="path4109" d="m779.29 421.48-19.85 111.54 39.78 0-19.93-111.54 -8.26-29.87 16.59 0 41.23 224.12-15.22 0-9.85-57.49-48.77 0-9.85 57.49-15.43 0 41.3-224.12" style="-inkscape-font-specification:Symbol;fill:#000;font-family:Symbol;font-size:50;letter-spacing:0;line-height:125;word-spacing:0"/><path id="path4111" d="m909.42 398.96 0 29.57c-5.56-5.5-10.8-9.61-15.72-12.31-4.93-2.7-9.69-4.05-14.27-4.05-7.97 0-14.13 3.2-18.48 9.61-4.3 6.41-6.45 15.51-6.45 27.32 0 9.91 1.43 17.41 4.28 22.52 2.9 5 8.36 9.06 16.38 12.16l8.84 3.75c10.92 4.3 18.96 11.91 24.13 22.82 5.22 10.81 7.83 25.32 7.83 43.53 0 21.72-3.53 38.18-10.58 49.39-7 11.21-17.29 16.81-30.87 16.81-5.12 0-10.58-1.2-16.38-3.6-5.75-2.4-11.71-5.95-17.9-10.66l0-31.22c5.94 6.91 11.76 12.11 17.46 15.61 5.7 3.5 11.3 5.25 16.81 5.25 8.36 0 14.81-3.4 19.35-10.21 4.54-6.81 6.81-16.51 6.81-29.12 0-11.01-1.64-19.62-4.93-25.82-3.24-6.2-8.57-10.86-16.01-13.96l-8.91-3.6c-10.92-4.5-18.82-11.56-23.69-21.17-4.88-9.61-7.32-22.97-7.32-40.08 0-19.82 3.36-35.43 10.07-46.84 6.76-11.41 16.06-17.11 27.9-17.11 5.07 0 10.24 0.95 15.51 2.85 5.27 1.9 10.65 4.75 16.16 8.56" style="-inkscape-font-specification:Symbol;fill:#000;font-family:Symbol;font-size:50;letter-spacing:0;line-height:125;word-spacing:0"/></g><g id="mb_frame" transform="matrix(0.05149209,0,0,0.05934833,-2.0941642,702.01413)"><path id="rect3296" d="m74.31 61.91 903.74 0 0 620.28-903.74 0z" style="fill:none;stroke-linecap:round;stroke-linejoin:round;stroke-miterlimit:4;stroke-width:17.52;stroke:#000"/><path d="m558.07 329.53 336.61 0" id="path4066" style="fill:none;stroke-linecap:square;stroke-linejoin:round;stroke-miterlimit:4;stroke-width:35.43;stroke:#000"/></g></g></svg>
