<svg
     xmlns:dc="http://purl.org/dc/elements/1.1/"
     xmlns:cc="http://creativecommons.org/ns#"
     xmlns:rdf="http://www.w3.org/1999/02/22-rdf-syntax-ns#"
     xmlns:svg="http://www.w3.org/2000/svg"
     xmlns="http://www.w3.org/2000/svg"
     xmlns:sodipodi="http://sodipodi.sourceforge.net/DTD/sodipodi-0.dtd"
     xmlns:inkscape="http://www.inkscape.org/namespaces/inkscape"
     width="50"
     height="40"
     viewbox="0 0 50 40"
     id="svg2985"
     version="1.1"
     inkscape:version="0.48.4 r9939"
     sodipodi:docname="bc_name.svg">
    <defs
       id="defs2987" />
    <sodipodi:namedview
       inkscape:document-units="px"
       pagecolor="#ffffff"
       bordercolor="#666666"
       borderopacity="1.0"
       inkscape:pageopacity="0.0"
       inkscape:pageshadow="2"
       inkscape:zoom="9.8238822"
       inkscape:cx="44.999131"
       inkscape:cy="37.528612"
       inkscape:current-layer="layer1"
       id="namedview2989"
       showgrid="true"
       showguides="false"
       inkscape:guide-bbox="true"
       inkscape:window-width="1863"
       inkscape:window-height="1059"
       inkscape:window-x="1423"
       inkscape:window-y="21"
       inkscape:window-maximized="1"
       units="px">
      <sodipodi:guide
         orientation="0,1"
         position="72.842085,698.47786"
         id="guide3072" />
      <sodipodi:guide
         orientation="0,1"
         position="89.685017,625.56379"
         id="guide3074" />
      <sodipodi:guide
         orientation="0,1"
         position="117.67242,619.71427"
         id="guide3076" />
      <sodipodi:guide
         orientation="1,0"
         position="131.71982,682.01143"
         id="guide3078" />
      <sodipodi:guide
         orientation="1,0"
         position="123.51484,724.10215"
         id="guide3109" />
      <inkscape:grid
         type="xygrid"
         id="grid3111"
         empspacing="5"
         visible="true"
         enabled="true"
         snapvisiblegridlinesonly="true" />
    </sodipodi:namedview>
    <metadata
       id="metadata2991">
      <rdf:RDF>
        <cc:Work
           rdf:about="">
          <dc:format>image/svg+xml</dc:format>
          <dc:type
             rdf:resource="http://purl.org/dc/dcmitype/StillImage" />
          <dc:title></dc:title>
        </cc:Work>
      </rdf:RDF>
    </metadata>
    <g
       inkscape:label="Layer 1"
       inkscape:groupmode="layer"
       id="layer1"
       transform="translate(0,-704.09451)">
      <g
         id="mb_text"
         transform="matrix(0.05149209,0,0,0.05934833,-2.0941643,702.01412)">
        <path
           id="path4088"
           style="font-size:100px;font-style:normal;font-variant:normal;font-weight:normal;font-stretch:normal;text-align:start;line-height:125%;letter-spacing:0px;word-spacing:0px;text-anchor:start;fill:#000000;fill-opacity:1;stroke:none;font-family:Times New Roman;-inkscape-font-specification:Times New Roman"
           d="m 234.87469,465.05915 -64.16873,-286.96939 0,227.86527 c -3e-5,20.95891 1.1021,34.03725 3.3064,39.23504 3.02063,7.0422 7.79653,10.56333 14.32775,10.56328 l 5.87805,0 0,9.3058 -57.80083,0 0,-9.3058 5.87806,0 c 7.02098,5e-5 12.00098,-4.35943 14.94005,-13.07835 1.79603,-5.36544 2.69408,-17.60543 2.69411,-36.71997 l 0,-222.83509 c -3e-5,-15.09012 -0.81645,-25.98877 -2.44921,-32.69591 -1.14298,-4.86216 -3.2656,-8.88627 -6.36788,-12.07233 -3.02068,-3.35311 -7.91906,-5.02982 -14.69513,-5.03013 l 0,-9.30575 47.02442,0 60.25,266.84879 59.27037,-266.84879 47.02441,0 0,9.30575 -5.75562,0 c -7.10284,3.1e-4 -12.12367,4.35979 -15.0625,13.07835 -1.79626,5.3658 -2.69429,17.60579 -2.69409,36.72002 l 0,222.83509 c -2e-4,20.95891 1.14276,34.03725 3.42885,39.23504 3.02047,7.0422 7.79639,10.56333 14.32774,10.56328 l 5.75562,0 0,9.3058 -70.53662,0 0,-9.3058 5.87806,0 c 7.10246,5e-5 12.08248,-4.35943 14.94004,-13.07835 1.7959,-5.36544 2.69393,-17.60543 2.69411,-36.71997 l 0,-227.86527 -64.04627,286.96939 -4.04116,0"
           inkscape:connector-curvature="0" />
        <path
           id="path4102"
           style="font-size:100px;font-style:normal;font-variant:normal;font-weight:normal;font-stretch:normal;line-height:125%;letter-spacing:0px;word-spacing:0px;fill:#000000;fill-opacity:1;stroke:none;font-family:Times New Roman;-inkscape-font-specification:Times New Roman"
           d="m 491.08223,461.85809 c 12.34136,4.57302 21.57558,11.88959 27.70271,21.94969 8.49009,14.02354 12.73522,31.17174 12.73538,51.44459 -1.6e-4,15.39536 -2.80107,30.18086 -8.40272,44.35669 -5.60196,14.0234 -13.30445,24.31234 -23.10748,30.86672 -9.71578,6.402 -24.59559,9.60303 -44.63946,9.60303 l -84.02723,0 0,-8.45982 6.69592,0 c 7.43989,4e-5 12.77913,-4.11554 16.01769,-12.34666 2.01313,-5.33499 3.01971,-16.6909 3.01973,-34.06775 l 0,-200.29094 c -2e-5,-19.20573 -1.2692,-31.32374 -3.80749,-36.35416 -3.41363,-6.70656 -8.49027,-10.06001 -15.22993,-10.06029 l -6.69592,0 0,-8.45977 76.93743,0 c 14.35454,2.8e-4 25.86452,1.82944 34.52992,5.4874 13.12914,5.48772 23.15113,15.24313 30.06599,29.26625 6.91459,13.87127 10.37197,29.87621 10.37213,48.01497 -1.6e-4,15.54792 -2.71353,29.49509 -8.14015,41.84161 -5.4269,12.19443 -13.43573,21.26392 -24.02652,27.20844 m -68.79729,-12.34671 c 3.23848,1.06716 6.91467,1.90554 11.02857,2.51507 4.20128,0.45749 8.79653,0.6861 13.7857,0.68596 12.77905,1.4e-4 22.3634,-2.36247 28.75307,-7.08792 6.47698,-4.87753 11.42235,-12.27033 14.83606,-22.17834 3.41349,-9.90763 5.12028,-20.73006 5.12042,-32.46728 -1.4e-4,-18.13871 -4.24525,-33.61016 -12.73538,-46.41445 -8.49036,-12.80368 -20.87562,-19.20569 -37.15579,-19.20597 -8.7529,2.8e-4 -16.63045,1.67703 -23.63265,5.03015 l 0,119.12278 m 0,148.16043 c 10.15323,4.11559 20.17522,6.17336 30.06599,6.17336 15.84253,0 27.92142,-6.17336 36.23673,-18.52006 8.31506,-12.49908 12.47265,-27.89435 12.47278,-46.1858 -1.3e-4,-12.04178 -1.88199,-23.6263 -5.64558,-34.7537 -3.76382,-11.12713 -9.89082,-19.89174 -18.38093,-26.29388 -8.49035,-6.40187 -18.99375,-9.60285 -31.51021,-9.60299 -5.42684,1.4e-4 -10.06584,0.15266 -13.917,0.45749 -3.85133,0.30484 -6.95859,0.83852 -9.32178,1.60052 l 0,127.1253"
           inkscape:connector-curvature="0" />
        <path
           inkscape:connector-curvature="0"
           id="path4114"
           style="font-size:40px;font-style:normal;font-variant:normal;font-weight:normal;font-stretch:normal;line-height:125%;letter-spacing:0px;word-spacing:0px;fill:#000000;fill-opacity:1;stroke:none;font-family:Droid Arabic Naskh;-inkscape-font-specification:Droid Arabic Naskh"
           d="m 147.40864,511.51493 0,92.95176 13.27667,0 c 11.20893,0 19.40707,-3.73622 24.59445,-11.20867 5.22355,-7.47237 7.83535,-19.26817 7.83541,-35.38731 -6e-5,-16.01228 -2.61186,-27.72798 -7.83541,-35.14714 -5.18738,-7.47233 -13.38552,-11.20856 -24.59445,-11.20864 l -13.27667,0 m -10.99132,-13.29027 22.5812,0 c 15.7433,1.2e-4 27.2969,4.8305 34.66079,14.4912 7.36375,9.6075 11.04565,24.6591 11.04574,45.15485 -9e-5,20.6026 -3.70013,35.7343 -11.10017,45.39505 -7.40016,9.66079 -18.93561,14.4912 -34.60636,14.4912 l -22.5812,0 0,-119.5323" />
        <path
           inkscape:connector-curvature="0"
           id="path4116"
           style="font-size:40px;font-style:normal;font-variant:normal;font-weight:normal;font-stretch:normal;line-height:125%;letter-spacing:0px;word-spacing:0px;fill:#000000;fill-opacity:1;stroke:none;font-family:Droid Arabic Naskh;-inkscape-font-specification:Droid Arabic Naskh"
           d="m 247.36447,514.15697 -14.90903,59.48593 29.87247,0 -14.96344,-59.48593 m -6.20302,-15.93231 12.46045,0 30.96073,119.5323 -11.42663,0 -7.4001,-30.66368 -36.61963,0 -7.40011,30.66368 -11.58988,0 31.01517,-119.5323" />
        <path
           inkscape:connector-curvature="0"
           id="path4118"
           style="font-size:40px;font-style:normal;font-variant:normal;font-weight:normal;font-stretch:normal;line-height:125%;letter-spacing:0px;word-spacing:0px;fill:#000000;fill-opacity:1;stroke:none;font-family:Droid Arabic Naskh;-inkscape-font-specification:Droid Arabic Naskh"
           d="m 345.08936,502.14768 0,15.7722 c -4.17166,-2.9355 -8.1075,-5.12388 -11.80751,-6.56506 -3.7001,-1.44102 -7.27318,-2.16157 -10.71925,-2.1617 -5.98542,1.3e-4 -10.61049,1.70809 -13.8752,5.12396 -3.2285,3.41608 -4.84274,8.27314 -4.84272,14.57126 -2e-5,5.28415 1.0701,9.28723 3.21033,12.00928 2.17648,2.6688 6.27557,4.83046 12.29723,6.485 l 6.63835,2.00154 c 8.1981,2.29517 14.23787,6.35162 18.11935,12.1694 3.91765,5.76449 5.87649,13.5038 5.87657,23.21792 -8e-5,11.58231 -2.64816,20.36239 -7.94425,26.34033 -5.2599,5.97797 -12.98649,8.96692 -23.17973,8.96692 -3.84519,0 -7.94425,-0.64049 -12.29723,-1.92148 -4.31675,-1.28099 -8.79671,-3.17579 -13.43989,-5.6844 l 0,-16.65285 c 4.46182,3.68289 8.83295,6.45835 13.11341,8.32642 4.28043,1.86816 8.48834,2.80219 12.62371,2.80219 6.27554,0 11.11825,-1.81474 14.52816,-5.44422 3.4098,-3.62944 5.1147,-8.80677 5.11476,-15.53198 -6e-5,-5.87115 -1.23338,-10.46136 -3.70004,-13.77061 -2.43046,-3.30918 -6.43885,-5.7911 -12.02518,-7.44577 l -6.69273,-1.92148 c -8.19819,-2.40178 -14.12914,-6.16469 -17.7929,-11.28873 -3.66379,-5.12388 -5.49568,-12.24937 -5.49568,-21.37649 0,-10.56806 2.52112,-18.89449 7.56336,-24.97929 5.07849,-6.08459 12.0614,-9.12691 20.94882,-9.12703 3.80883,1.2e-4 7.69026,0.50715 11.64429,1.52116 3.95392,1.01425 7.99858,2.53541 12.13397,4.56351" />
        <path
           id="path4091"
           style="font-size:50px;font-style:normal;font-variant:normal;font-weight:normal;font-stretch:normal;line-height:125%;letter-spacing:0px;word-spacing:-0.00255978px;writing-mode:lr-tb;fill:#000000;fill-opacity:1;stroke:none;font-family:Symbol;-inkscape-font-specification:Symbol"
           d="m 371.34339,124.01576 82.70242,0 0,17.65126 -65.0055,0 0,45.89332 62.28965,0 0,17.65127 -62.28965,0 0,56.17258 66.58244,0 0,17.65127 -84.27936,0 0,-155.0197"
           inkscape:connector-curvature="0" />
        <path
           id="path4093"
           style="font-size:50px;font-style:normal;font-variant:normal;font-weight:normal;font-stretch:normal;line-height:125%;letter-spacing:0px;word-spacing:-0.00255978px;writing-mode:lr-tb;fill:#000000;fill-opacity:1;stroke:none;font-family:Symbol;-inkscape-font-specification:Symbol"
           d="m 484.884,124.01576 23.82953,0 57.99684,129.68494 0,-129.68494 17.17124,0 0,155.0197 -23.8295,0 -57.99683,-129.68495 0,129.68495 -17.17128,0 0,-155.0197"
           inkscape:connector-curvature="0" />
        <path
           id="path4095"
           style="font-size:50px;font-style:normal;font-variant:normal;font-weight:normal;font-stretch:normal;line-height:125%;letter-spacing:0px;word-spacing:-0.00255978px;writing-mode:lr-tb;fill:#000000;fill-opacity:1;stroke:none;font-family:Symbol;-inkscape-font-specification:Symbol"
           d="m 619.10025,124.01576 17.69692,0 0,155.0197 -17.69692,0 0,-155.0197"
           inkscape:connector-curvature="0" />
        <path
           id="path4097"
           style="font-size:50px;font-style:normal;font-variant:normal;font-weight:normal;font-stretch:normal;line-height:125%;letter-spacing:0px;word-spacing:-0.00255978px;writing-mode:lr-tb;fill:#000000;fill-opacity:1;stroke:none;font-family:Symbol;-inkscape-font-specification:Symbol"
           d="m 672.01578,124.01576 23.82949,0 57.99684,129.68494 0,-129.68494 17.17128,0 0,155.0197 -23.82953,0 -57.9968,-129.68495 0,129.68495 -17.17128,0 0,-155.0197"
           inkscape:connector-curvature="0" />
        <path
           id="path4099"
           style="font-size:50px;font-style:normal;font-variant:normal;font-weight:normal;font-stretch:normal;line-height:125%;letter-spacing:0px;word-spacing:-0.00255978px;writing-mode:lr-tb;fill:#000000;fill-opacity:1;stroke:none;font-family:Symbol;-inkscape-font-specification:Symbol"
           d="m 849.94865,144.67813 -24.00472,77.14644 48.09707,0 -24.09235,-77.14644 m -9.98736,-20.66237 20.06235,0 49.84923,155.0197 -18.39777,0 -11.91479,-39.76729 -58.96051,0 -11.91474,39.76729 -18.66063,0 49.93686,-155.0197"
           inkscape:connector-curvature="0" />
        <path
           id="path4105"
           style="font-size:50px;font-style:normal;font-variant:normal;font-weight:normal;font-stretch:normal;line-height:125%;letter-spacing:0px;word-spacing:0px;fill:#000000;fill-opacity:1;stroke:none;font-family:Symbol;-inkscape-font-specification:Symbol"
           d="m 591.76108,421.47536 -19.85389,111.53612 39.78026,0 -19.92637,-111.53612 m -8.26038,-29.87307 16.59323,0 41.22945,224.12306 -15.21649,0 -9.85448,-57.49441 -48.76526,0 -9.85448,57.49441 -15.43389,0 41.30192,-224.12306"
           inkscape:connector-curvature="0" />
        <path
           id="path4107"
           style="font-size:50px;font-style:normal;font-variant:normal;font-weight:normal;font-stretch:normal;line-height:125%;letter-spacing:0px;word-spacing:0px;fill:#000000;fill-opacity:1;stroke:none;font-family:Symbol;-inkscape-font-specification:Symbol"
           d="m 657.04708,391.60229 14.63682,0 0,198.60336 52.67807,0 0,25.5197 -67.31489,0 0,-224.12306"
           inkscape:connector-curvature="0" />
        <path
           id="path4109"
           style="font-size:50px;font-style:normal;font-variant:normal;font-weight:normal;font-stretch:normal;line-height:125%;letter-spacing:0px;word-spacing:0px;fill:#000000;fill-opacity:1;stroke:none;font-family:Symbol;-inkscape-font-specification:Symbol"
           d="m 779.28627,421.47536 -19.85392,111.53612 39.78026,0 -19.92634,-111.53612 m -8.2604,-29.87307 16.59322,0 41.22948,224.12306 -15.21652,0 -9.85448,-57.49441 -48.76523,0 -9.85451,57.49441 -15.43386,0 41.3019,-224.12306"
           inkscape:connector-curvature="0" />
        <path
           id="path4111"
           style="font-size:50px;font-style:normal;font-variant:normal;font-weight:normal;font-stretch:normal;line-height:125%;letter-spacing:0px;word-spacing:0px;fill:#000000;fill-opacity:1;stroke:none;font-family:Symbol;-inkscape-font-specification:Symbol"
           d="m 909.4235,398.95798 0,29.57282 c -5.5553,-5.50405 -10.79651,-9.60723 -15.7237,-12.30948 -4.92729,-2.70188 -9.68546,-4.05295 -14.27452,-4.05313 -7.97059,1.8e-4 -14.12963,3.2027 -18.47716,9.60742 -4.2993,6.40515 -6.44892,15.51212 -6.44892,27.32109 0,9.90779 1.42503,17.41356 4.27511,22.51739 2.89838,5.00398 8.35698,9.05711 16.37586,12.1594 l 8.84007,3.75288 c 10.91715,4.30345 18.96015,11.90933 24.129,22.81763 5.21702,10.8084 7.82554,25.31962 7.82563,43.53356 -9e-5,21.71683 -3.52645,38.17954 -10.57908,49.38816 -7.00449,11.20867 -17.29374,16.81301 -30.86774,16.81301 -5.12053,0 -10.57914,-1.20098 -16.37585,-3.6028 -5.74849,-2.40189 -11.71432,-5.95463 -17.89752,-10.65824 l 0,-31.22414 c 5.94167,6.90542 11.76258,12.10941 17.46274,15.6121 5.70011,3.5027 11.30365,5.25405 16.81063,5.25405 8.35692,0 14.80581,-3.4026 19.34667,-10.20791 4.54074,-6.80518 6.81113,-16.5127 6.81119,-29.12243 -6e-5,-11.00847 -1.64249,-19.61512 -4.92723,-25.81994 -3.2366,-6.2047 -8.57444,-10.85832 -16.01355,-13.96079 l -8.91252,-3.6028 c -10.91728,-4.50334 -18.81535,-11.55879 -23.69426,-21.16633 -4.87894,-9.60729 -7.31841,-22.9676 -7.31841,-40.08097 0,-19.81508 3.35728,-35.42712 10.07186,-46.83612 6.76286,-11.40863 16.06184,-17.113 27.89692,-17.11325 5.07212,2.5e-4 10.24088,0.95096 15.50633,2.85222 5.26531,1.90168 10.65147,4.7539 16.15845,8.5566"
           inkscape:connector-curvature="0" />
      </g>
      <g
         id="mb_frame"
         transform="matrix(0.05149209,0,0,0.05934833,-2.0941642,702.01413)">
        <path
           id="rect3296"
           d="m 74.310547,61.908966 903.741093,0 0,620.276554 -903.741093,0 z"
           style="fill:none;stroke:#000000;stroke-width:17.51872635;stroke-linecap:round;stroke-linejoin:round;stroke-miterlimit:4;stroke-opacity:1;stroke-dashoffset:0"
           inkscape:connector-curvature="0" />
        <path
           sodipodi:nodetypes="cc"
           inkscape:connector-curvature="0"
           d="m 558.07086,329.52755 336.61418,0"
           id="path4066"
           style="fill:none;stroke:#000000;stroke-width:35.43307114;stroke-linecap:square;stroke-linejoin:round;stroke-miterlimit:4;stroke-opacity:1;stroke-dasharray:none;stroke-dashoffset:0" />
      </g>
    </g>
  </svg>
