<?xml version="1.0" encoding="iso-8859-1"?>
<!-- Generator: Adobe Illustrator 16.0.0, SVG Export Plug-In . SVG Version: 6.00 Build 0)  -->
<!DOCTYPE svg PUBLIC "-//W3C//DTD SVG 1.1//EN" "http://www.w3.org/Graphics/SVG/1.1/DTD/svg11.dtd">
<svg version="1.1" id="Capa_1" xmlns="http://www.w3.org/2000/svg" xmlns:xlink="http://www.w3.org/1999/xlink" x="0px" y="0px"
	 width="579.193px" height="579.193px" viewBox="0 0 579.193 579.193" style="enable-background:new 0 0 579.193 579.193;"
	 xml:space="preserve">
<g>
	<g>
		<g>
			<path d="M261.808,578.693h259.757c21.061,0,38.193-17.134,38.193-38.194V38.694c0-21.061-17.133-38.194-38.193-38.194H261.001
				c-11.83,0-21.42,9.59-21.42,21.42s9.59,21.42,21.42,21.42h255.918v492.514H261.808c-11.83,0-21.42,9.59-21.42,21.42
				S249.978,578.693,261.808,578.693z"/>
			<path d="M521.565,579.193H261.808c-12.087,0-21.92-9.833-21.92-21.92s9.833-21.92,21.92-21.92h254.611V43.84H261.001
				c-12.087,0-21.92-9.833-21.92-21.92S248.914,0,261.001,0h260.564c21.336,0,38.693,17.358,38.693,38.694v501.805
				C560.259,561.835,542.901,579.193,521.565,579.193z M261.808,536.354c-11.535,0-20.92,9.385-20.92,20.92s9.385,20.92,20.92,20.92
				h259.757c20.784,0,37.693-16.909,37.693-37.694V38.694C559.259,17.91,542.35,1,521.565,1H261.001
				c-11.535,0-20.92,9.385-20.92,20.92s9.385,20.92,20.92,20.92h256.418v493.514H261.808z"/>
		</g>
		<g>
			<path d="M275.602,128.723c-3.012-6.798-7.296-12.833-12.734-17.935c-10.402-9.759-23.977-15.134-38.224-15.134
				c0,0-0.002,0-0.003,0c-13.836,0-27.123,5.171-37.413,14.558L37.577,246.719c-11.53,10.518-18.143,25.5-18.142,41.106
				c0,15.605,6.613,30.587,18.142,41.104l149.651,136.508c10.291,9.388,23.579,14.558,37.415,14.558
				c14.247,0,27.822-5.374,38.223-15.133c5.438-5.102,9.723-11.136,12.735-17.935c3.157-7.125,4.759-14.727,4.759-22.596v-19.746
				h139.543c30.678,0,55.637-24.959,55.637-55.638V226.701c0-30.678-24.959-55.638-55.637-55.638H280.36v-19.747
				C280.36,143.449,278.759,135.847,275.602,128.723z M419.903,213.904c7.066,0,12.797,5.729,12.797,12.797v122.247
				c0,7.067-5.73,12.798-12.797,12.798H250.317c-7.068,0-12.797,5.729-12.797,12.797v49.789c0,7.67-6.283,12.823-12.877,12.823
				c-2.966,0-5.995-1.042-8.545-3.368L66.447,297.279c-5.564-5.075-5.564-13.833,0-18.91l149.65-136.507
				c2.549-2.325,5.579-3.367,8.545-3.368c6.594,0,12.877,5.153,12.877,12.823v49.789c0,7.067,5.729,12.798,12.798,12.798
				L419.903,213.904L419.903,213.904L419.903,213.904z"/>
			<path d="M224.643,480.495c-13.962,0-27.369-5.217-37.752-14.688L37.24,329.299c-11.633-10.612-18.305-25.729-18.305-41.474
				c0-15.745,6.671-30.862,18.305-41.476l149.651-136.507c10.383-9.472,23.79-14.688,37.75-14.688
				c14.377,0,28.074,5.423,38.569,15.269c5.487,5.149,9.811,11.238,12.849,18.097c3.186,7.188,4.801,14.857,4.801,22.796v19.247
				h139.043c30.954,0,56.137,25.183,56.137,56.138v122.247c0,30.954-25.183,56.138-56.137,56.138H280.86v19.246
				c0,7.938-1.616,15.608-4.802,22.798c-3.039,6.86-7.363,12.949-12.85,18.097C252.714,475.073,239.018,480.495,224.643,480.495z
				 M224.644,96.154c-13.713,0-26.88,5.124-37.079,14.427L37.914,247.089c-11.426,10.423-17.979,25.271-17.979,40.736
				c0,15.465,6.553,30.312,17.979,40.735l149.651,136.508c10.198,9.303,23.366,14.427,37.078,14.427
				c14.12,0,27.573-5.326,37.88-14.997c5.39-5.057,9.636-11.036,12.621-17.772c3.129-7.062,4.716-14.597,4.716-22.394v-20.246
				h140.043c30.402,0,55.137-24.734,55.137-55.138V226.701c0-30.403-24.734-55.138-55.137-55.138H279.86v-20.247
				c0-7.798-1.586-15.332-4.715-22.391c-2.984-6.736-7.23-12.716-12.62-17.773C252.216,101.481,238.763,96.154,224.644,96.154z
				 M224.643,437.655c-3.302,0-6.373-1.21-8.882-3.499L66.11,297.648c-2.756-2.513-4.336-6.094-4.336-9.823
				c0-3.73,1.581-7.311,4.336-9.826l149.65-136.507c2.508-2.288,5.58-3.498,8.882-3.499l0,0c6.433,0,13.377,5.094,13.377,13.323
				v49.789c0,6.781,5.517,12.298,12.298,12.298h169.586c3.552,0,6.891,1.383,9.402,3.894c2.511,2.512,3.895,5.851,3.895,9.403
				v122.247c0,7.332-5.965,13.298-13.297,13.298H250.317c-6.781,0-12.297,5.517-12.297,12.297v49.789
				C238.02,432.562,231.076,437.655,224.643,437.655z M224.643,138.995c-3.048,0.001-5.887,1.121-8.208,3.237L66.784,278.739
				c-2.549,2.325-4.01,5.637-4.01,9.086c0,3.449,1.462,6.76,4.01,9.084l149.65,136.508c2.322,2.118,5.16,3.237,8.208,3.237
				c7.748,0,12.377-6.266,12.377-12.323v-49.789c0-7.332,5.965-13.297,13.297-13.297h169.586c6.78,0,12.297-5.517,12.297-12.298
				V226.701c0-6.781-5.517-12.297-12.297-12.297l-169.586,0c-7.333,0-13.298-5.965-13.298-13.298v-49.789
				C237.02,145.26,232.39,138.995,224.643,138.995L224.643,138.995z"/>
		</g>
	</g>
</g>
<g>
</g>
<g>
</g>
<g>
</g>
<g>
</g>
<g>
</g>
<g>
</g>
<g>
</g>
<g>
</g>
<g>
</g>
<g>
</g>
<g>
</g>
<g>
</g>
<g>
</g>
<g>
</g>
<g>
</g>
</svg>
