<?xml version="1.0" encoding="utf-8"?>
<!-- Generated by IcoMoon.io -->
<!DOCTYPE svg PUBLIC "-//W3C//DTD SVG 1.1//EN" "http://www.w3.org/Graphics/SVG/1.1/DTD/svg11.dtd">
<svg version="1.1" xmlns="http://www.w3.org/2000/svg" xmlns:xlink="http://www.w3.org/1999/xlink" width="32" height="32" viewBox="0 0 32 32">
<path fill="#444444" d="M12.856 7.495c0.8-0.336 1.136-1.291 0.774-2.065l-1.265-2.659c-0.361-0.748-1.239-1.084-2.014-0.748-2.194 0.929-4.079 2.143-5.576 3.614-1.833 1.729-3.072 3.717-3.743 5.911-0.671 2.22-1.033 5.24-1.033 9.087v7.925c0 0.852 0.697 1.549 1.549 1.549h10.145c0.852 0 1.549-0.697 1.549-1.549v-10.145c0-0.852-0.697-1.549-1.549-1.549h-4.853c0.052-2.608 0.671-4.698 1.807-6.273 0.929-1.264 2.323-2.297 4.208-3.098z"></path>
<path fill="#444444" d="M31.081 7.495c0.8-0.336 1.136-1.291 0.774-2.065l-1.265-2.633c-0.361-0.749-1.239-1.084-2.014-0.749-2.168 0.929-4.027 2.143-5.55 3.588-1.833 1.755-3.098 3.743-3.769 5.937-0.671 2.168-1.006 5.189-1.006 9.061v7.925c0 0.852 0.697 1.549 1.549 1.549h10.145c0.852 0 1.549-0.697 1.549-1.549v-10.145c0-0.852-0.697-1.549-1.549-1.549h-4.879c0.052-2.608 0.671-4.698 1.807-6.273 0.929-1.265 2.323-2.297 4.208-3.098z"></path>
</svg>
