<?xml version="1.0" encoding="utf-8"?>
<!-- Generated by IcoMoon.io -->
<!DOCTYPE svg PUBLIC "-//W3C//DTD SVG 1.1//EN" "http://www.w3.org/Graphics/SVG/1.1/DTD/svg11.dtd">
<svg version="1.1" xmlns="http://www.w3.org/2000/svg" xmlns:xlink="http://www.w3.org/1999/xlink" width="32" height="32" viewBox="0 0 32 32">
<path fill="#444444" d="M28.799 0.028h-14.396c-0.654 0-1.183 0.53-1.183 1.183s0.53 1.183 1.183 1.183h14.139v27.211h-14.095c-0.654 0-1.183 0.53-1.183 1.183s0.53 1.183 1.183 1.183h14.351c1.164 0 2.11-0.947 2.11-2.11v-27.724c0-1.164-0.947-2.11-2.11-2.11z"></path>
<path fill="#444444" d="M28.799 32h-14.351c-0.668 0-1.211-0.543-1.211-1.211s0.543-1.211 1.211-1.211h14.067v-27.156h-14.112c-0.668 0-1.211-0.543-1.211-1.211s0.543-1.211 1.211-1.211h14.396c1.179 0 2.138 0.959 2.138 2.138v27.724c0 1.179-0.959 2.138-2.138 2.138zM14.448 29.633c-0.637 0-1.156 0.518-1.156 1.156s0.518 1.156 1.156 1.156h14.351c1.148 0 2.083-0.934 2.083-2.083v-27.724c0-1.148-0.934-2.083-2.082-2.083h-14.396c-0.637 0-1.156 0.518-1.156 1.156s0.518 1.156 1.156 1.156h14.167v27.266h-14.122z"></path>
<path fill="#444444" d="M1.091 12.525v6.754c0 1.695 1.379 3.074 3.074 3.074h7.71v1.091c0 0.435 0.088 0.855 0.263 1.248 0.166 0.376 0.403 0.709 0.704 0.991 0.575 0.539 1.325 0.836 2.112 0.836 0.764 0 1.499-0.286 2.067-0.804l8.268-7.542c0.637-0.581 1.002-1.409 1.002-2.271s-0.365-1.69-1.002-2.271l-8.268-7.542c-0.569-0.519-1.303-0.804-2.067-0.804-0.787 0-1.537 0.297-2.112 0.836-0.3 0.282-0.537 0.615-0.704 0.991-0.174 0.394-0.263 0.814-0.263 1.248v1.091h-7.71c-1.695 0-3.074 1.379-3.074 3.074zM13.534 11.818c0.39 0 0.707-0.317 0.707-0.707v-2.751c0-0.424 0.347-0.708 0.711-0.708 0.164 0 0.331 0.058 0.472 0.186l8.268 7.542c0.307 0.28 0.307 0.764 0 1.045l-8.268 7.542c-0.141 0.128-0.308 0.186-0.472 0.186-0.364 0-0.711-0.285-0.711-0.708v-2.751c0-0.39-0.317-0.707-0.707-0.707h-9.37c-0.39 0-0.707-0.317-0.707-0.707v-6.754c0-0.39 0.317-0.707 0.707-0.707l9.37 0z"></path>
<path fill="#444444" d="M14.953 26.547c-0.794 0-1.551-0.3-2.131-0.844-0.303-0.284-0.542-0.621-0.71-1-0.176-0.397-0.265-0.821-0.265-1.26v-1.063h-7.682c-1.71 0-3.102-1.391-3.102-3.102v-6.754c0-1.71 1.391-3.102 3.102-3.102h7.682v-1.063c0-0.439 0.089-0.862 0.265-1.26 0.168-0.379 0.407-0.715 0.71-1 0.58-0.544 1.336-0.844 2.131-0.844 0.771 0 1.512 0.288 2.086 0.811l8.268 7.542c0.643 0.586 1.011 1.422 1.011 2.292s-0.369 1.705-1.011 2.291l-8.268 7.542c-0.574 0.523-1.315 0.811-2.086 0.811zM4.165 9.479c-1.68 0-3.046 1.367-3.046 3.046v6.754c0 1.68 1.367 3.046 3.046 3.046h7.737v1.119c0 0.431 0.088 0.847 0.261 1.237 0.165 0.372 0.399 0.703 0.697 0.982 0.569 0.534 1.313 0.829 2.093 0.829 0.758 0 1.485-0.283 2.049-0.797l8.268-7.542c0.631-0.576 0.993-1.396 0.993-2.251s-0.362-1.675-0.993-2.251l-8.268-7.542c-0.563-0.514-1.291-0.797-2.049-0.797-0.78 0-1.523 0.294-2.093 0.829-0.298 0.279-0.532 0.61-0.697 0.982-0.173 0.39-0.261 0.806-0.261 1.237v1.119h-7.737zM14.953 24.18c-0.355 0-0.739-0.281-0.739-0.736v-2.751c0-0.375-0.305-0.679-0.679-0.679h-9.37c-0.405 0-0.735-0.33-0.735-0.735v-6.754c0-0.405 0.33-0.735 0.735-0.735h9.369c0 0 0 0 0 0 0.181 0 0.352-0.071 0.48-0.199s0.199-0.299 0.199-0.48v-2.751c0-0.455 0.384-0.736 0.739-0.736 0.182 0 0.352 0.067 0.491 0.193l8.268 7.542c0.152 0.139 0.24 0.337 0.24 0.543s-0.087 0.404-0.24 0.543l-8.268 7.542c-0.139 0.126-0.308 0.193-0.491 0.193zM4.165 11.846c-0.375 0-0.679 0.305-0.679 0.679v6.754c0 0.375 0.305 0.679 0.679 0.679h9.369c0.405 0 0.735 0.33 0.735 0.735v2.751c0 0.421 0.355 0.681 0.684 0.681 0.168 0 0.325-0.062 0.454-0.179l8.268-7.542c0.141-0.128 0.222-0.311 0.222-0.502s-0.081-0.374-0.222-0.502l-8.268-7.542c-0.128-0.117-0.285-0.179-0.454-0.179-0.428 0-0.684 0.346-0.684 0.681v2.751c0 0.405-0.33 0.735-0.735 0.735l-9.369-0z"></path>
</svg>
