<?xml version="1.0" encoding="utf-8"?>
<!-- Generated by IcoMoon.io -->
<!DOCTYPE svg PUBLIC "-//W3C//DTD SVG 1.1//EN" "http://www.w3.org/Graphics/SVG/1.1/DTD/svg11.dtd">
<svg version="1.1" xmlns="http://www.w3.org/2000/svg" xmlns:xlink="http://www.w3.org/1999/xlink" width="32" height="32" viewBox="0 0 32 32">
<path fill="#444444" d="M14.465 31.972h14.351c1.164 0 2.11-0.947 2.11-2.11v-27.724c0-1.164-0.947-2.11-2.11-2.11h-14.396c-0.654 0-1.183 0.53-1.183 1.183s0.53 1.183 1.183 1.183h14.139v27.211h-14.095c-0.654 0-1.183 0.53-1.183 1.183s0.53 1.183 1.183 1.183z"></path>
<path fill="#444444" d="M28.816 32h-14.351c-0.668 0-1.211-0.543-1.211-1.211s0.543-1.211 1.211-1.211h14.067v-27.156h-14.112c-0.668 0-1.211-0.543-1.211-1.211s0.543-1.211 1.211-1.211h14.396c1.179 0 2.138 0.959 2.138 2.138v27.724c0 1.179-0.959 2.138-2.138 2.138zM14.465 29.633c-0.637 0-1.156 0.518-1.156 1.156s0.518 1.156 1.156 1.156h14.351c1.148 0 2.082-0.934 2.082-2.083v-27.724c0-1.148-0.934-2.083-2.082-2.083h-14.396c-0.637 0-1.156 0.518-1.156 1.156s0.518 1.156 1.156 1.156h14.167v27.266h-14.122z"></path>
<path fill="#444444" d="M15.227 7.112c-0.166-0.376-0.403-0.709-0.704-0.991-0.575-0.539-1.325-0.836-2.112-0.836 0 0-0 0-0 0-0.764 0-1.499 0.286-2.067 0.804l-8.268 7.542c-0.637 0.581-1.002 1.409-1.002 2.271s0.365 1.69 1.002 2.271l8.268 7.542c0.569 0.519 1.303 0.804 2.067 0.804 0.787 0 1.537-0.297 2.112-0.836 0.3-0.282 0.537-0.615 0.704-0.991 0.174-0.394 0.263-0.814 0.263-1.248v-1.091h7.71c1.695 0 3.074-1.379 3.074-3.074v-6.754c0-1.695-1.379-3.074-3.074-3.074h-7.71v-1.091c0-0.435-0.088-0.855-0.263-1.248zM23.199 11.818c0.39 0 0.707 0.317 0.707 0.707v6.754c0 0.39-0.317 0.707-0.707 0.707h-9.37c-0.39 0-0.707 0.317-0.707 0.707v2.751c0 0.424-0.347 0.708-0.711 0.708-0.164 0-0.331-0.058-0.472-0.186l-8.268-7.542c-0.307-0.28-0.307-0.764 0-1.045l8.268-7.542c0.141-0.128 0.308-0.186 0.472-0.186 0.364 0 0.711 0.285 0.711 0.708v2.751c0 0.39 0.317 0.707 0.707 0.707h9.37z"></path>
<path fill="#444444" d="M12.411 26.547c-0.771 0-1.512-0.288-2.086-0.811l-8.268-7.542c-0.643-0.586-1.011-1.421-1.011-2.291s0.369-1.705 1.011-2.292l8.268-7.542c0.574-0.523 1.314-0.811 2.086-0.811 0.794 0 1.551 0.3 2.131 0.844 0.303 0.284 0.542 0.621 0.71 1 0.176 0.397 0.265 0.821 0.265 1.259v1.063h7.682c1.71 0 3.102 1.391 3.102 3.102v6.754c0 1.71-1.391 3.102-3.102 3.102h-7.682v1.063c0 0.439-0.089 0.862-0.265 1.26-0.168 0.379-0.407 0.715-0.71 1-0.58 0.544-1.336 0.844-2.131 0.844zM12.411 5.312c-0.758 0-1.485 0.283-2.049 0.797l-8.268 7.542c-0.631 0.576-0.993 1.396-0.993 2.251s0.362 1.675 0.993 2.251l8.268 7.542c0.563 0.514 1.291 0.797 2.049 0.797 0.78 0 1.523-0.294 2.093-0.829 0.298-0.279 0.532-0.61 0.697-0.982 0.173-0.39 0.261-0.806 0.261-1.237v-1.119h7.737c1.68 0 3.046-1.367 3.046-3.046v-6.754c0-1.68-1.367-3.046-3.046-3.046h-7.737v-1.119c0-0.431-0.088-0.847-0.261-1.237-0.165-0.372-0.399-0.703-0.697-0.982-0.57-0.534-1.313-0.829-2.093-0.829zM12.411 24.18c-0.182 0-0.352-0.067-0.491-0.193l-8.268-7.542c-0.152-0.139-0.24-0.337-0.24-0.543s0.087-0.404 0.24-0.543l8.268-7.542c0.139-0.126 0.308-0.193 0.491-0.193v0c0.355 0 0.739 0.281 0.739 0.736v2.751c0 0.375 0.305 0.679 0.679 0.679h9.369c0.196 0 0.381 0.076 0.519 0.215s0.215 0.323 0.215 0.52v6.754c0 0.405-0.33 0.735-0.735 0.735h-9.37c-0.375 0-0.679 0.305-0.679 0.679v2.751c0 0.455-0.384 0.736-0.739 0.736zM12.411 7.679c-0.168 0-0.325 0.062-0.454 0.179l-8.268 7.542c-0.141 0.128-0.222 0.311-0.222 0.502s0.081 0.373 0.222 0.502l8.268 7.542c0.128 0.117 0.285 0.179 0.454 0.179 0.428 0 0.684-0.346 0.684-0.681v-2.751c0-0.405 0.33-0.735 0.735-0.735h9.369c0.375 0 0.679-0.305 0.679-0.679v-6.754c0-0.375-0.305-0.679-0.679-0.679h-9.37c-0.405 0-0.735-0.33-0.735-0.735v-2.751c0-0.335-0.256-0.681-0.684-0.681v0z"></path>
</svg>
