<?xml version="1.0" encoding="utf-8"?>
<!-- Generated by IcoMoon.io -->
<!DOCTYPE svg PUBLIC "-//W3C//DTD SVG 1.1//EN" "http://www.w3.org/Graphics/SVG/1.1/DTD/svg11.dtd">
<svg version="1.1" xmlns="http://www.w3.org/2000/svg" xmlns:xlink="http://www.w3.org/1999/xlink" width="32" height="32" viewBox="0 0 32 32">
<path fill="#444444" d="M32 16.002c0-8.817-7.185-16.002-16.002-16.002s-15.998 7.185-15.998 16.002c0 4.857 2.203 9.225 5.631 12.162 0.042 0.042 0.083 0.083 0.162 0.121 2.774 2.328 6.327 3.715 10.246 3.715 3.836 0 7.389-1.387 10.163-3.632 0.163-0.042 0.287-0.163 0.367-0.287 3.311-2.978 5.431-7.264 5.431-12.079zM1.47 16.002c0-8.001 6.531-14.532 14.532-14.532s14.532 6.531 14.532 14.532c0 3.919-1.55 7.468-4.082 10.083-0.408-1.92-1.633-5.185-5.389-7.306 0.858-1.062 1.345-2.449 1.345-3.919 0-3.511-2.857-6.368-6.368-6.368s-6.368 2.857-6.368 6.368c0 1.47 0.529 2.816 1.345 3.919-3.791 2.12-5.015 5.386-5.382 7.306-2.574-2.574-4.165-6.164-4.165-10.083zM11.104 14.898c0-2.695 2.203-4.898 4.898-4.898s4.898 2.203 4.898 4.898-2.203 4.898-4.898 4.898-4.898-2.203-4.898-4.898zM6.939 27.348c0.083-1.183 0.733-5.185 5.144-7.43 1.104 0.858 2.449 1.345 3.919 1.345s2.857-0.529 3.961-1.387c4.369 2.245 5.061 6.164 5.185 7.43-2.491 1.999-5.673 3.224-9.101 3.224-3.473 0.004-6.618-1.179-9.108-3.182z"></path>
</svg>
