<?xml version="1.0" encoding="utf-8"?>
<!-- Generated by IcoMoon.io -->
<!DOCTYPE svg PUBLIC "-//W3C//DTD SVG 1.1//EN" "http://www.w3.org/Graphics/SVG/1.1/DTD/svg11.dtd">
<svg version="1.1" xmlns="http://www.w3.org/2000/svg" xmlns:xlink="http://www.w3.org/1999/xlink" width="32" height="32" viewBox="0 0 32 32">
<path fill="#444444" d="M16 0c-8.837 0-16 7.163-16 16s7.163 16 16 16c8.837 0 16-7.163 16-16s-7.163-16-16-16zM16 29.5c-7.456 0-13.5-6.044-13.5-13.5s6.044-13.5 13.5-13.5 13.5 6.044 13.5 13.5-6.044 13.5-13.5 13.5z"></path>
<path fill="#444444" d="M14.942 11.593l-1.864-1.593c-2.314 1.699-4.078 4.726-4.078 7.965 0 2.601 1.459 4.035 3.123 4.035 1.511 0 2.719-1.273 2.719-2.87 0-1.539-1.056-2.705-2.467-2.705-0.252 0-0.604 0.105-0.656 0.105 0.203-1.698 1.611-3.821 3.224-4.937z"></path>
<path fill="#444444" d="M20.434 16.425c-0.202 0-0.558 0.105-0.656 0.105 0.2-1.698 1.611-3.821 3.223-4.937l-1.863-1.593c-2.314 1.699-4.077 4.726-4.077 7.965 0 2.601 1.458 4.035 3.122 4.035 1.509 0 2.717-1.273 2.717-2.87-0-1.539-1.054-2.705-2.465-2.705z"></path>
</svg>
